<?xml version="1.0" encoding="UTF-8" standalone="no"?>
<svg
   xmlns:dc="http://purl.org/dc/elements/1.1/"
   xmlns:cc="http://creativecommons.org/ns#"
   xmlns:rdf="http://www.w3.org/1999/02/22-rdf-syntax-ns#"
   xmlns:svg="http://www.w3.org/2000/svg"
   xmlns="http://www.w3.org/2000/svg"
   xmlns:sodipodi="http://sodipodi.sourceforge.net/DTD/sodipodi-0.dtd"
   xmlns:inkscape="http://www.inkscape.org/namespaces/inkscape"
   version="1.0"
   width="420"
   height="520"
   viewBox="0 0 336 416"
   preserveAspectRatio="xMidYMid meet"
   id="svg2"
   inkscape:version="0.48.2 r9819"
   sodipodi:docname="aes2.svg">
  <defs
     id="defs30" />
  <sodipodi:namedview
     pagecolor="#ffffff"
     bordercolor="#666666"
     borderopacity="1"
     objecttolerance="10"
     gridtolerance="10"
     guidetolerance="10"
     inkscape:pageopacity="0"
     inkscape:pageshadow="2"
     inkscape:window-width="1680"
     inkscape:window-height="1003"
     id="namedview28"
     showgrid="false"
     inkscape:zoom="0.87407407"
     inkscape:cx="415.68419"
     inkscape:cy="202.68194"
     inkscape:window-x="-4"
     inkscape:window-y="-4"
     inkscape:window-maximized="1"
     inkscape:current-layer="svg2" />
  <metadata
     id="metadata4">
Created by potrace 1.10, written by Peter Selinger 2001-2011
<rdf:RDF>
  <cc:Work
     rdf:about="">
    <dc:format>image/svg+xml</dc:format>
    <dc:type
       rdf:resource="http://purl.org/dc/dcmitype/StillImage" />
    <dc:title />
  </cc:Work>
</rdf:RDF>
</metadata>
  <g
     transform="matrix(0.1,0,0,-0.1,-49.181631,423.69266)"
     id="g6"
     style="fill:#000000;stroke:none">
    <path
       d="m 593,3698 c 2,-244 10,-488 16,-543 59,-509 176,-1021 322,-1409 141,-373 361,-808 526,-1037 200,-279 377,-451 549,-531 87,-41 207,-50 299,-23 181,52 419,234 603,460 169,208 353,522 447,765 167,427 305,1003 375,1565 34,276 40,389 40,798 l 0,397 -1591,0 -1591,0 5,-442 z m 3114,-55 c -5,-446 -14,-562 -67,-892 -79,-490 -182,-895 -322,-1271 -117,-313 -182,-433 -375,-691 -287,-384 -599,-598 -815,-560 -126,22 -252,104 -405,264 -231,243 -417,543 -621,1007 -180,408 -299,814 -377,1290 -52,312 -58,394 -62,848 l -5,432 1527,0 1527,0 -5,-427 z"
       id="path8"
       inkscape:connector-curvature="0" />
    <path
       d="m 955,3988 c -17,-45 -135,-404 -135,-410 0,-4 21,-8 46,-8 44,0 46,1 61,40 l 16,40 62,0 62,0 13,-40 13,-40 55,0 c 39,0 53,3 50,13 -3,6 -36,103 -74,214 l -69,203 -48,0 c -29,0 -49,-5 -52,-12 z m 65,-183 c 5,-14 13,-37 16,-50 6,-23 3,-25 -30,-25 -20,0 -36,1 -36,3 0,10 33,97 36,97 3,0 9,-11 14,-25 z"
       id="path10"
       inkscape:connector-curvature="0" />
    <path
       d="m 1420,3830 c 0,-192 6,-216 64,-244 43,-20 154,-21 201,-2 66,28 75,59 75,249 l 0,168 -47,-3 -48,-3 -5,-156 c -6,-173 -11,-189 -65,-189 -61,0 -70,22 -73,196 l -3,154 -50,0 -49,0 0,-170 z"
       id="path12"
       inkscape:connector-curvature="0" />
    <path
       d="m 2054,3987 c -2,-7 -3,-102 -2,-212 l 3,-200 103,-3 c 127,-3 176,14 219,79 35,53 44,157 19,223 -21,55 -74,105 -122,117 -61,14 -214,11 -220,-4 z m 213,-101 c 26,-23 28,-29 28,-104 0,-71 -3,-83 -24,-106 -20,-21 -34,-26 -73,-26 l -48,0 0,130 0,130 44,0 c 33,0 52,-6 73,-24 z"
       id="path14"
       inkscape:connector-curvature="0" />
    <path
       d="m 2737,3994 c -4,-4 -7,-101 -7,-216 l 0,-208 50,0 50,0 -2,213 -3,212 -40,3 c -23,2 -44,0 -48,-4 z"
       id="path16"
       inkscape:connector-curvature="0" />
    <path
       d="m 3264,3990 c -98,-14 -155,-89 -156,-204 0,-99 33,-161 106,-198 56,-29 168,-23 219,12 95,65 114,218 40,318 -42,57 -122,84 -209,72 z m 111,-111 c 60,-72 38,-206 -39,-233 -37,-14 -76,3 -104,44 -20,30 -23,44 -20,102 3,53 8,72 27,92 40,43 97,40 136,-5 z"
       id="path18"
       inkscape:connector-curvature="0" />
    <path
       d="m 1995,3524 c -163,-36 -289,-124 -347,-242 l -33,-67 -3,-827 -3,-828 151,0 150,0 0,140 0,140 160,0 160,0 0,-140 0,-140 265,0 265,0 0,813 0,812 -26,55 c -36,79 -84,132 -170,189 -112,75 -207,103 -369,107 -93,3 -150,-1 -200,-12 z m 105,-184 c 27,0 77,-46 103,-94 22,-41 22,-44 25,-643 l 3,-603 -154,0 -154,0 -7,38 c -10,61 -7,1112 4,1177 7,44 17,67 39,88 28,28 83,49 109,41 8,-2 22,-4 32,-4 z"
       id="path20"
       inkscape:connector-curvature="0" />
    <path
       d="m 1243,1408 c 14,-58 158,-339 237,-466 102,-162 185,-268 305,-388 173,-173 312,-253 420,-240 139,16 387,188 572,396 171,192 373,543 408,708 l 7,32 -980,0 -980,0 11,-42 z m 1328,-144 c 38,-22 66,-58 75,-96 6,-26 4,-28 -23,-28 -24,0 -31,6 -38,32 -27,88 -229,91 -251,3 -11,-45 43,-86 161,-120 127,-36 175,-78 175,-151 0,-35 -7,-51 -32,-80 -42,-47 -83,-64 -156,-64 -104,0 -203,70 -214,150 -2,21 2,26 24,28 22,3 27,-2 33,-26 11,-51 74,-99 135,-102 76,-4 92,0 126,34 70,70 37,124 -102,163 -153,43 -204,81 -204,154 0,46 42,100 92,117 49,16 160,8 199,-14 z m -421,-24 0,-30 -145,0 -145,0 0,-80 0,-80 135,0 135,0 0,-25 0,-25 -135,0 -135,0 0,-90 0,-90 150,0 150,0 0,-35 0,-35 -180,0 -180,0 0,260 0,260 175,0 175,0 0,-30 z"
       id="path22"
       inkscape:connector-curvature="0" />
  </g>
  <text
     xml:space="preserve"
     style="font-size:27.2px;font-style:normal;font-variant:normal;font-weight:bold;font-stretch:normal;text-align:start;line-height:125%;letter-spacing:0px;word-spacing:0px;writing-mode:lr;text-anchor:start;fill:#000000;fill-opacity:1;stroke:none;font-family:Arial;-inkscape-font-specification:Arial Bold"
     x="237.46606"
     y="405.24686"
     id="text3007"
     sodipodi:linespacing="125%"><tspan
       sodipodi:role="line"
       id="tspan3011"
       x="237.46606"
       y="405.24686">®</tspan></text>
</svg>
